<?xml version="1.0" encoding="UTF-8" standalone="no"?>
<svg
   enable-background="new 0 0 127.999 128"
   height="128px"
   id="Layer_1"
   version="1.1"
   viewBox="0 0 127.999 128"
   width="127.999px"
   xml:space="preserve"
   sodipodi:docname="install_download.svg"
   inkscape:version="1.2.1 (2ed6d7ae0b, 2022-08-22, custom)"
   inkscape:export-filename="../87a63ab5/install_download_pr_0.png"
   inkscape:export-xdpi="52.500408"
   inkscape:export-ydpi="52.500408"
   xmlns:inkscape="http://www.inkscape.org/namespaces/inkscape"
   xmlns:sodipodi="http://sodipodi.sourceforge.net/DTD/sodipodi-0.dtd"
   xmlns="http://www.w3.org/2000/svg"
   xmlns:svg="http://www.w3.org/2000/svg"><defs
     id="defs45" /><sodipodi:namedview
     id="namedview43"
     pagecolor="#ffffff"
     bordercolor="#666666"
     borderopacity="1.0"
     inkscape:showpageshadow="2"
     inkscape:pageopacity="0.0"
     inkscape:pagecheckerboard="0"
     inkscape:deskcolor="#d1d1d1"
     showgrid="false"
     inkscape:zoom="2.9390539"
     inkscape:cx="55.970392"
     inkscape:cy="66.177759"
     inkscape:window-width="1308"
     inkscape:window-height="704"
     inkscape:window-x="58"
     inkscape:window-y="27"
     inkscape:window-maximized="1"
     inkscape:current-layer="Layer_1" /><rect
     style="display:inline;opacity:1;fill:#8a7469;fill-opacity:1;stroke:none;stroke-width:1.88976;stroke-linecap:round;stroke-linejoin:round"
     id="rect1320"
     width="126"
     height="126"
     x="0.85320973"
     y="1.2563064"
     ry="24.301706" /><path
     d="M 64.632,91.496761 H 91.92 v -17.232 l -27.591,-14.5 -28.13,15.09 v 51.058999 c 8.41,4.08 17.84,6.352 27.8,6.352 h 0.09 c 0.183,0 0.361,-0.01 0.543,-0.012 z"
     fill="#ead57d"
     id="path20"
     style="display:inline" /><polygon
     fill="#d6c169"
     points="36.231,87.906 64.231,87.906 64.231,55.484 36.231,69.906 "
     id="polygon22"
     transform="translate(0,4.264761)"
     style="display:inline" /><path
     d="m 92.17,92.264761 v 33.479999 c -0.08,0.049 -0.17,0.09 -0.25,0.129 -0.08,0.041 -0.17,0.08 -0.25,0.121 -1.57,0.75 -3.17,1.438 -4.811,2.067 -0.141,0.052 -0.279,0.103 -0.422,0.15 -3.697,1.39 -7.561,2.438 -11.539,3.13 -3.471,0.602 -7.039,0.92 -10.729,0.92 V 92.264761 Z"
     fill="#d6c169"
     id="path24"
     style="display:inline" /><g
     id="g34"
     transform="translate(0,4.264761)"
     style="display:inline"><path
       d="M 107.284,80.843 93.936,72.834 c -0.002,0 -0.002,-0.001 -0.002,-0.001 l -1.986,-1.19 -2.006,1.158 v 0 l -23.98,13.848 c -0.004,0.002 -0.004,0.004 -0.006,0.004 l -2.002,1.156 1.984,1.189 c 0,0 0.002,0.002 0.004,0.003 l 5.648,3.388 4.764,2.859 v 0 l 2.938,1.76 c 1.094,0.657 2.891,0.672 3.994,0.034 l 23.979,-13.847 c 1.103,-0.638 1.112,-1.696 0.019,-2.352 z"
       fill="#ffef97"
       id="path26" /><path
       d="m 64.263,55.438 -1.529,-0.896 c -0.002,0 -0.003,-0.001 -0.005,-0.003 L 49.381,46.532 C 48.287,45.876 46.49,45.859 45.386,46.498 l -23.98,13.848 c -1.104,0.639 -1.112,1.695 -0.02,2.353 l 13.349,8.009 c 0,0 10e-4,0.001 0.002,0.002 l 1.438,0.868 z"
       fill="#ffef97"
       id="path28" /><path
       d="m 64.148,55.495 1.436,-0.868 c 0.002,0 0.004,-0.001 0.006,-0.003 l 13.348,-8.007 c 1.096,-0.656 2.893,-0.672 3.994,-0.034 l 23.98,13.849 c 1.104,0.637 1.111,1.694 0.02,2.353 l -13.348,8.008 -0.002,0.002 -1.439,0.868 z"
       fill="#ffef97"
       id="path30" /><path
       d="m 62.061,88.958 1.984,-1.19 -2.001,-1.156 c -0.003,0 -0.004,-0.002 -0.006,-0.004 L 38.059,72.76 h -10e-4 l -2.006,-1.158 -1.985,1.19 -0.002,0.001 -13.349,8.01 c -1.093,0.656 -1.084,1.715 0.02,2.353 l 21.249,12.271 0.744,0.432 v 0 l 1.987,1.146 c 1.104,0.639 2.901,0.622 3.995,-0.033 l 3.643,-2.187 c 10e-4,0 10e-4,0 10e-4,0 l 5.7,-3.419 4.004,-2.402 c 0.002,-0.005 0.002,-0.005 0.002,-0.006 z"
       fill="#ffef97"
       id="path32" /></g><g
     id="g2036"
     transform="matrix(1.8145745,0,0,1.9789923,-52.132462,-41.092233)"
     style="display:inline;stroke:#8a7469;stroke-width:2.74244;stroke-dasharray:none;stroke-opacity:1"><path
       d="m 64,35.23 c -3.854,0 -7.479,-1.502 -10.205,-4.23 -1.562,-1.562 -1.562,-4.095 0,-5.656 1.562,-1.561 4.096,-1.562 5.656,0 1.217,1.217 2.832,1.887 4.549,1.887 1.715,0 3.331,-0.67 4.547,-1.887 1.561,-1.562 4.096,-1.562 5.658,0 1.561,1.562 1.561,4.094 0,5.656 -2.728,2.729 -6.351,4.23 -10.205,4.23 z"
       fill="#ffffff"
       id="path2034"
       style="stroke:#8a7469;stroke-width:2.74244;stroke-dasharray:none;stroke-opacity:1" /></g><g
     id="g2032"
     transform="matrix(1.3372461,0,0,1.3372461,-21.583623,-6.566332)"
     style="display:inline;stroke:#8a7469;stroke-width:1.49561;stroke-dasharray:none;stroke-opacity:1"><path
       d="m 64,35.23 c -3.854,0 -7.479,-1.502 -10.205,-4.23 -1.562,-1.562 -1.562,-4.095 0,-5.656 1.562,-1.561 4.096,-1.562 5.656,0 1.217,1.217 2.832,1.887 4.549,1.887 1.715,0 3.331,-0.67 4.547,-1.887 1.561,-1.562 4.096,-1.562 5.658,0 1.561,1.562 1.561,4.094 0,5.656 -2.728,2.729 -6.351,4.23 -10.205,4.23 z"
       fill="#ffffff"
       id="path2030"
       style="stroke:#8a7469;stroke-width:1.49561;stroke-dasharray:none;stroke-opacity:1" /></g><g
     id="g38"
     transform="translate(0,16.282139)"
     style="display:inline"><path
       d="m 64,35.23 c -3.854,0 -7.479,-1.502 -10.205,-4.23 -1.562,-1.562 -1.562,-4.095 0,-5.656 1.562,-1.561 4.096,-1.562 5.656,0 1.217,1.217 2.832,1.887 4.549,1.887 1.715,0 3.331,-0.67 4.547,-1.887 1.561,-1.562 4.096,-1.562 5.658,0 1.561,1.562 1.561,4.094 0,5.656 -2.728,2.729 -6.351,4.23 -10.205,4.23 z"
       fill="#ffffff"
       id="path36"
       style="display:inline" /></g></svg>
